<?xml version="1.0" encoding="utf-8"?>
<!-- Generator: Adobe Illustrator 16.0.0, SVG Export Plug-In . SVG Version: 6.00 Build 0)  -->
<!DOCTYPE svg PUBLIC "-//W3C//DTD SVG 1.1//EN" "http://www.w3.org/Graphics/SVG/1.1/DTD/svg11.dtd">
<svg version="1.1" id="Layer_1" xmlns="http://www.w3.org/2000/svg" xmlns:xlink="http://www.w3.org/1999/xlink" x="0px" y="0px"
	 width="1346.28px" height="300px" viewBox="0 0 1346.28 300" enable-background="new 0 0 1346.28 300" xml:space="preserve">
<g>
	<defs>
		<rect id="SVGID_1_" width="1346.284" height="300"/>
	</defs>
	<clipPath id="SVGID_2_">
		<use xlink:href="#SVGID_1_"  overflow="visible"/>
	</clipPath>
	<path clip-path="url(#SVGID_2_)" fill="#E6E6E6" d="M328.497,220.981c-2.593,0-5.059-0.813-7.132-2.351
		c-1.869-1.379-3.244-3.244-4.014-5.44l-15.969-30.032v26.491c0,6.672-4.756,11.332-11.565,11.332h-23.023
		c-3.773,0-6.3-1.522-7.756-2.799c-2.358-2.069-3.655-5.1-3.655-8.533V101.437c0-3.838,1.546-6.403,2.843-7.879
		c2.099-2.381,5.139-3.688,8.568-3.688h50.076c6.381,0,12.474,1.221,18.106,3.63c5.549,2.373,10.474,5.655,14.637,9.754
		c4.18,4.119,7.511,8.993,9.901,14.486c2.421,5.569,3.649,11.558,3.649,17.804c0,4.28-0.597,8.433-1.773,12.343
		c-1.154,3.835-2.784,7.471-4.846,10.811c-2.054,3.331-4.533,6.395-7.366,9.102c-0.916,0.876-1.864,1.714-2.843,2.513l16.683,31.425
		c0.285,0.571,0.675,1.283,1.158,2.117c1.284,2.22,1.933,4.428,1.933,6.571c0,3.261-1.342,6.144-3.778,8.116
		c-1.38,1.116-3.752,2.44-7.246,2.44H328.497z M307.646,142.039c0.755,0,1.392-0.019,1.894-0.056
		c0.646-0.044,1.319-0.111,2.059-0.198c0.711-0.081,1.276-0.256,1.754-0.538c0.569-0.335,1.023-0.726,1.382-1.187
		c0.419-0.542,0.736-1.148,0.967-1.852c0.255-0.777,0.378-1.546,0.378-2.355c0-0.608-0.12-1.23-0.366-1.901
		c-0.269-0.735-0.644-1.399-1.141-2.022c-0.441-0.55-0.977-1.016-1.626-1.411c-0.462-0.28-0.982-0.474-1.578-0.586
		c-1.288-0.091-2.501-0.171-3.64-0.243c-1.095-0.065-2.33-0.099-3.648-0.099h-2.698v12.448H307.646z"/>
	<path clip-path="url(#SVGID_2_)" fill="#242422" d="M355.86,205.308l-19.921-37.518c2.79-1.6,5.36-3.526,7.712-5.776
		c2.351-2.246,4.381-4.754,6.086-7.518c1.706-2.765,3.035-5.736,3.992-8.915c0.956-3.177,1.433-6.522,1.433-10.038
		c0-5.167-0.995-10.037-2.984-14.613c-1.989-4.572-4.716-8.565-8.178-11.976c-3.463-3.409-7.519-6.11-12.17-8.099
		c-4.651-1.99-9.638-2.986-14.961-2.986h-50.075c-1.137,0-1.99,0.324-2.558,0.969c-0.57,0.648-0.853,1.512-0.853,2.598v108.213
		c0,1.137,0.311,1.976,0.93,2.519c0.62,0.544,1.446,0.814,2.481,0.814h23.023c2.376,0,3.565-1.11,3.565-3.333v-34.96h12.558
		l18.836,35.425c0.206,0.879,0.659,1.578,1.357,2.092c0.697,0.518,1.484,0.776,2.363,0.776h26.589c0.93,0,1.667-0.22,2.21-0.658
		c0.542-0.439,0.814-1.071,0.814-1.9c0-0.722-0.285-1.576-0.853-2.557C356.688,206.886,356.222,206.032,355.86,205.308
		 M323.304,140.697c-0.517,1.578-1.267,2.998-2.247,4.264c-0.983,1.268-2.198,2.325-3.644,3.179
		c-1.447,0.852-3.075,1.384-4.883,1.59c-0.88,0.103-1.68,0.181-2.404,0.231c-0.723,0.053-1.551,0.077-2.48,0.077h-14.263v-28.447
		h10.697c1.498,0,2.88,0.039,4.148,0.114c1.265,0.079,2.622,0.17,4.069,0.273c1.757,0.259,3.359,0.827,4.806,1.705
		c1.446,0.879,2.686,1.965,3.722,3.255c1.032,1.293,1.833,2.713,2.402,4.263c0.567,1.551,0.852,3.101,0.852,4.651
		C324.079,137.509,323.82,139.122,323.304,140.697"/>
	<path clip-path="url(#SVGID_2_)" fill="#E6E6E6" d="M412.293,222.766c-5.448,0-10.758-0.695-15.786-2.065
		c-5.014-1.362-9.771-3.342-14.132-5.883c-4.355-2.535-8.36-5.619-11.903-9.165c-3.543-3.541-6.627-7.547-9.162-11.901
		c-2.531-4.344-4.521-9.087-5.909-14.094c-1.403-5.035-2.114-10.36-2.114-15.82c0-5.457,0.71-10.791,2.112-15.854
		c1.39-5.036,3.384-9.789,5.924-14.121c2.53-4.316,5.609-8.301,9.151-11.844c3.556-3.556,7.572-6.633,11.938-9.145
		c4.34-2.498,9.083-4.458,14.096-5.824c5.041-1.37,10.351-2.065,15.785-2.065c8.067,0,15.778,1.53,22.918,4.546
		c7.102,3.002,13.382,7.203,18.667,12.488c5.268,5.268,9.488,11.529,12.542,18.611c3.084,7.161,4.647,14.968,4.647,23.208
		c0,5.448-0.711,10.772-2.114,15.822c-1.394,5.012-3.382,9.753-5.913,14.095c-2.535,4.354-5.618,8.358-9.162,11.901
		c-3.541,3.542-7.546,6.626-11.901,9.162c-4.355,2.537-9.077,4.514-14.036,5.878C422.963,222.068,417.697,222.766,412.293,222.766
		 M412.061,147.109c-2.279,0-4.209,0.392-5.898,1.197c-1.752,0.836-3.195,1.934-4.411,3.359c-1.307,1.536-2.303,3.298-3.039,5.38
		c-0.761,2.156-1.131,4.377-1.131,6.792c0,2.478,0.377,4.794,1.124,6.887c0.714,2.007,1.672,3.666,2.929,5.073
		c1.205,1.35,2.651,2.399,4.414,3.206c1.723,0.79,3.688,1.173,6.012,1.173c2.199,0,4.07-0.375,5.723-1.146
		c1.704-0.795,3.092-1.827,4.25-3.157c1.206-1.388,2.123-3.035,2.799-5.031c0.722-2.129,1.088-4.484,1.088-7.004
		c0-2.423-0.368-4.747-1.094-6.906c-0.698-2.074-1.652-3.825-2.917-5.353c-1.16-1.396-2.548-2.477-4.239-3.299
		C416.05,147.492,414.213,147.109,412.061,147.109"/>
	<path clip-path="url(#SVGID_2_)" fill="#242422" d="M448.222,127.675c-4.574-4.574-9.948-8.165-16.124-10.775
		c-6.175-2.609-12.777-3.915-19.804-3.915c-4.756,0-9.317,0.596-13.683,1.783c-4.368,1.19-8.437,2.868-12.209,5.039
		s-7.196,4.793-10.27,7.868c-3.076,3.075-5.711,6.486-7.908,10.234c-2.196,3.745-3.902,7.814-5.115,12.209
		c-1.216,4.392-1.822,8.965-1.822,13.719s0.606,9.314,1.822,13.681c1.213,4.369,2.919,8.439,5.115,12.208
		c2.197,3.773,4.832,7.198,7.908,10.271c3.074,3.077,6.498,5.711,10.27,7.908c3.772,2.196,7.841,3.89,12.209,5.077
		c4.366,1.189,8.927,1.782,13.683,1.782c4.701,0,9.211-0.593,13.525-1.782c4.316-1.188,8.36-2.881,12.132-5.077
		c3.771-2.197,7.196-4.831,10.271-7.908c3.075-3.073,5.709-6.498,7.907-10.271c2.196-3.769,3.901-7.839,5.116-12.208
		c1.213-4.366,1.822-8.927,1.822-13.681c0-7.182-1.332-13.862-3.992-20.039C456.412,137.624,452.796,132.249,448.222,127.675
		 M432.409,173.41c-1.008,2.972-2.455,5.543-4.341,7.714c-1.888,2.169-4.186,3.888-6.899,5.154s-5.75,1.897-9.109,1.897
		c-3.463,0-6.577-0.631-9.34-1.897c-2.766-1.267-5.116-2.985-7.054-5.154c-1.938-2.171-3.438-4.742-4.496-7.714
		c-1.06-2.972-1.589-6.164-1.589-9.573c0-3.306,0.529-6.459,1.589-9.456c1.058-2.998,2.558-5.633,4.496-7.908
		c1.938-2.272,4.288-4.069,7.054-5.388c2.763-1.318,5.877-1.976,9.34-1.976c3.359,0,6.396,0.658,9.109,1.976
		c2.713,1.319,5.011,3.116,6.899,5.388c1.886,2.275,3.333,4.91,4.341,7.908c1.008,2.997,1.512,6.15,1.512,9.456
		C433.921,167.246,433.417,170.438,432.409,173.41"/>
	<path clip-path="url(#SVGID_2_)" fill="#E6E6E6" d="M526.008,222.765c-5.352,0-10.592-0.696-15.575-2.07
		c-4.97-1.367-9.68-3.353-13.994-5.9c-4.277-2.524-8.247-5.592-11.8-9.118c-3.589-3.557-6.688-7.582-9.207-11.96
		c-2.495-4.334-4.464-9.063-5.851-14.056c-1.402-5.042-2.114-10.367-2.114-15.823c0-5.452,0.711-10.786,2.111-15.852
		c1.389-5.025,3.363-9.765,5.867-14.087c2.514-4.341,5.608-8.345,9.195-11.903c3.567-3.537,7.549-6.598,11.835-9.098
		c4.295-2.506,8.991-4.471,13.958-5.841c4.998-1.374,10.236-2.071,15.575-2.071c6.417,0,12.478,0.88,18.014,2.616
		c5.253,1.648,10.253,4.073,14.875,7.213l0.023-0.03c2.049,1.212,3.749,2.716,5.055,4.469c1.698,2.293,2.591,5.106,2.591,8.151
		c0,2.422-0.704,4.782-2.092,7.021l-6.821,11.574c-3.891,6.765-9.303,7.776-12.187,7.776c-1.381,0-2.797-0.26-4.329-0.79
		c-1.348-0.47-2.685-1.161-4.085-2.118c-1.731-1.134-3.621-2.081-5.619-2.813c-1.736-0.635-3.562-0.945-5.579-0.945
		c-2.06,0-3.867,0.388-5.526,1.185c-1.735,0.836-3.174,1.939-4.393,3.369c-1.323,1.553-2.338,3.333-3.101,5.439
		c-0.774,2.14-1.15,4.343-1.15,6.734c0,2.455,0.385,4.753,1.142,6.829c0.742,2.03,1.719,3.708,2.988,5.129
		c1.214,1.359,2.653,2.412,4.403,3.22c1.689,0.782,3.532,1.161,5.637,1.161c1.939,0,3.678-0.318,5.317-0.976
		c2.012-0.804,3.945-1.84,5.755-3.081c1.628-1.153,3.336-1.913,5.078-2.26c1.168-0.236,2.152-0.348,3.074-0.348
		c2.118,0,4.125,0.463,5.965,1.378c2.055,1.029,3.812,2.701,5.389,5.122l8.711,13.144l0.06,0.098
		c0.445,0.714,0.86,1.498,1.236,2.331c0.714,1.589,1.057,3.067,1.057,4.532c0,3.332-1.198,6.292-3.467,8.562
		c-1.118,1.116-2.338,2.11-3.635,2.961c-4.782,3.309-10.068,5.998-15.709,7.994C538.815,221.711,532.53,222.765,526.008,222.765"/>
	<path clip-path="url(#SVGID_2_)" fill="#242422" d="M558.411,197.479l-8.682-13.099c-0.774-1.189-1.525-1.965-2.248-2.326
		c-0.724-0.36-1.524-0.542-2.402-0.542c-0.363,0-0.866,0.063-1.512,0.193c-0.647,0.129-1.332,0.451-2.054,0.97
		c-2.326,1.602-4.781,2.919-7.365,3.95c-2.584,1.036-5.347,1.552-8.294,1.552c-3.256,0-6.253-0.633-8.992-1.899
		c-2.739-1.265-5.077-2.984-7.014-5.153c-1.939-2.171-3.451-4.741-4.536-7.714c-1.085-2.972-1.628-6.164-1.628-9.572
		c0-3.308,0.543-6.46,1.628-9.457s2.597-5.632,4.536-7.907c1.937-2.273,4.275-4.07,7.014-5.389c2.739-1.317,5.736-1.975,8.992-1.975
		c2.947,0,5.723,0.478,8.333,1.433c2.61,0.957,5.051,2.184,7.326,3.683c0.826,0.569,1.576,0.968,2.248,1.202
		c0.671,0.233,1.24,0.348,1.706,0.348c2.065,0,3.823-1.266,5.27-3.797l6.899-11.707c0.621-0.981,0.93-1.938,0.93-2.867
		c0-1.344-0.337-2.468-1.008-3.373c-0.671-0.903-1.577-1.691-2.712-2.364l0.232,0.232c-4.187-2.945-8.67-5.166-13.449-6.665
		c-4.78-1.499-9.988-2.25-15.62-2.25c-4.651,0-9.134,0.597-13.449,1.784c-4.315,1.19-8.333,2.868-12.053,5.039
		c-3.722,2.171-7.132,4.793-10.233,7.868c-3.1,3.075-5.736,6.486-7.907,10.233c-2.17,3.746-3.863,7.815-5.077,12.209
		c-1.215,4.393-1.822,8.966-1.822,13.721c0,4.754,0.607,9.313,1.822,13.681c1.214,4.369,2.907,8.438,5.077,12.208
		c2.171,3.772,4.807,7.198,7.907,10.271c3.101,3.077,6.511,5.711,10.233,7.908c3.72,2.197,7.738,3.889,12.053,5.076
		c4.315,1.19,8.798,1.784,13.449,1.784c5.632,0,10.969-0.892,16.007-2.674c5.04-1.783,9.676-4.149,13.916-7.094
		c0.877-0.567,1.691-1.228,2.44-1.976c0.749-0.75,1.125-1.718,1.125-2.907c0-0.312-0.117-0.723-0.35-1.241
		C558.915,198.359,558.669,197.894,558.411,197.479"/>
	<path clip-path="url(#SVGID_2_)" fill="#E6E6E6" d="M642.981,220.981c-2.814,0-5.484-1.023-7.72-2.961
		c-1.294-1.119-2.57-2.599-3.898-4.518l-19.372-27.43v20.94c0,0.929-0.107,1.922-0.335,3.124c-0.311,1.606-0.904,3.143-1.769,4.587
		c-0.98,1.631-2.285,3.016-3.888,4.129c-2.051,1.417-4.467,2.128-7.203,2.128h-19.457c-2.627,0-5.093-0.79-7.131-2.282
		c-1.484-1.082-2.715-2.392-3.645-3.881c-0.731-1.171-1.273-2.3-1.658-3.452c-0.359-1.072-0.682-2.152-0.682-3.498V91.205
		c0-1.06,0.033-2.061,0.099-2.975c0.157-2.239,0.932-4.35,2.242-6.093c1.355-1.812,3.248-3.149,5.617-3.963
		c1.681-0.579,3.675-0.862,6.089-0.862h18.526c2.265,0,4.324,0.471,6.118,1.399c1.738,0.909,3.166,2.108,4.271,3.58
		c1.087,1.452,1.822,3.054,2.196,4.773c0.25,1.159,0.376,2.289,0.376,3.366v36.514l13.96-15.51c2.87-3.201,6.591-4.898,10.752-4.898
		h23.797c8.426,0,12.264,5.875,12.264,11.333c0,1.817-0.374,3.488-1.112,4.966c-0.501,0.995-1.166,1.954-2.173,3.145l-0.146,0.172
		l-27.288,28.814l37.88,48.653c1.947,2.501,2.44,5.841,1.3,8.799l-0.583,1.512c-0.928,2.659-2.652,4.215-3.821,5.01
		c-1.997,1.356-4.487,2.042-7.406,2.042H642.981z"/>
	<path clip-path="url(#SVGID_2_)" fill="#242422" d="M671.196,205.93h0.156l-40.076-51.473l31.859-33.642
		c0.569-0.673,0.942-1.189,1.124-1.551c0.18-0.36,0.271-0.826,0.271-1.396c0-2.22-1.422-3.333-4.264-3.333h-23.797
		c-1.859,0-3.461,0.751-4.805,2.249l-27.906,31.007V90.43c0-0.518-0.066-1.072-0.195-1.668c-0.129-0.594-0.387-1.148-0.774-1.666
		c-0.388-0.516-0.906-0.942-1.551-1.279c-0.646-0.335-1.46-0.505-2.441-0.505H580.27c-1.5,0-2.662,0.143-3.488,0.428
		c-0.828,0.284-1.434,0.684-1.821,1.202c-0.388,0.516-0.609,1.135-0.66,1.859c-0.051,0.723-0.078,1.526-0.078,2.404v116.663
		c0,0.104,0.09,0.426,0.272,0.97c0.18,0.542,0.466,1.123,0.853,1.744c0.387,0.618,0.916,1.175,1.589,1.665
		c0.671,0.491,1.473,0.735,2.403,0.735h19.457c1.085,0,1.962-0.231,2.635-0.697c0.671-0.466,1.201-1.02,1.59-1.667
		c0.387-0.646,0.645-1.303,0.775-1.975c0.128-0.672,0.194-1.214,0.194-1.629v-25.039l8.603-8.914l25.349,35.891
		c0.93,1.345,1.782,2.354,2.558,3.023c0.775,0.672,1.601,1.007,2.48,1.007h26.2c1.291,0,2.261-0.218,2.908-0.657
		c0.645-0.438,0.968-1.254,0.968-2.443c0-0.566-0.142-1.201-0.425-1.898C672.346,207.285,671.869,206.602,671.196,205.93"/>
	<path clip-path="url(#SVGID_2_)" fill="#E6E6E6" d="M739.255,220.981c-6.719,0-11.41-4.691-11.41-11.409V101.282
		c0-2.83,0.948-5.447,2.742-7.569c2.107-2.483,5.184-3.844,8.668-3.844h22.791c2.446,0,4.831,0.804,7.083,2.389
		c3,2.115,4.716,5.402,4.716,9.024v108.291c0,6.718-4.853,11.409-11.799,11.409H739.255z"/>
	<path clip-path="url(#SVGID_2_)" fill="#242422" d="M764.525,98.8c-0.88-0.619-1.704-0.931-2.479-0.931h-22.792
		c-1.136,0-1.989,0.338-2.558,1.008c-0.568,0.673-0.853,1.473-0.853,2.404v108.291c0,2.274,1.138,3.41,3.41,3.41h22.792
		c2.531,0,3.798-1.136,3.798-3.41V101.281C765.844,100.248,765.403,99.419,764.525,98.8"/>
	<path clip-path="url(#SVGID_2_)" fill="#E6E6E6" d="M857.777,220.981c-4.324,0-7.58-1.047-9.952-3.2
		c-2.561-2.317-3.861-5.785-3.861-10.302v-50.465c0-0.969-0.207-1.826-0.647-2.698c-0.58-1.146-1.325-2.128-2.279-3.008
		c-0.975-0.897-2.054-1.589-3.297-2.111c-1.111-0.466-2.192-0.695-3.295-0.695c-0.766,0-1.627,0.203-2.563,0.601
		c-1.122,0.479-2.142,1.141-3.118,2.023c-0.984,0.891-1.8,1.925-2.491,3.164c-0.495,0.885-0.784,1.83-0.883,2.879v50.077
		c0,1.844-0.345,3.688-1.025,5.478c-0.915,2.386-2.442,4.365-4.426,5.743l-0.182,0.126l-0.187,0.115
		c-1.336,0.823-2.704,1.422-4.065,1.779c-1.252,0.327-2.625,0.493-4.084,0.493h-17.519c-5.689,0-8.979-2.314-10.736-4.257
		c-1.619-1.792-3.543-4.926-3.543-9.711V120.33c0-2.292,0.535-4.463,1.591-6.454c0.846-1.587,1.949-2.93,3.296-4.016l-0.032-0.05
		c1.701-1.437,3.611-2.381,5.679-2.807c1.279-0.264,2.541-0.398,3.746-0.398h11.705c2.17,0,4.178,0.452,5.968,1.343
		c1.702,0.854,3.147,2.008,4.324,3.441c0.568,0.693,1.076,1.441,1.516,2.235c0.231-0.189,0.465-0.376,0.702-0.562
		c2.886-2.255,6.297-4.152,10.142-5.642c4.036-1.563,8.672-2.356,13.781-2.356c7.054,0,13.602,1.401,19.46,4.165
		c5.801,2.738,10.823,6.534,14.926,11.283c4.022,4.653,7.168,10.131,9.354,16.282c2.158,6.082,3.252,12.624,3.252,19.446v50.773
		c0,3.897-1.067,7.134-3.17,9.622c-1.677,1.983-4.805,4.346-10.18,4.346H857.777z"/>
	<path clip-path="url(#SVGID_2_)" fill="#242422" d="M870.374,125.742c-3.387-3.918-7.48-7.01-12.286-9.278
		c-4.809-2.268-10.156-3.4-16.047-3.4c-4.135,0-7.767,0.605-10.892,1.816c-3.128,1.212-5.827,2.704-8.101,4.482
		c-2.274,1.779-4.147,3.687-5.62,5.721c-1.473,2.036-2.596,3.853-3.371,5.449l-2.403-9.894c-0.26-0.773-0.531-1.519-0.813-2.241
		c-0.285-0.722-0.659-1.366-1.124-1.933c-0.465-0.566-1.034-1.017-1.706-1.355c-0.672-0.334-1.472-0.504-2.403-0.504h-11.705
		c-0.672,0-1.383,0.079-2.132,0.233c-0.749,0.154-1.46,0.518-2.131,1.084l0.464-0.23c-0.774,0.463-1.382,1.108-1.82,1.932
		c-0.438,0.826-0.659,1.726-0.659,2.705v86.684c0,1.812,0.491,3.256,1.474,4.344c0.981,1.084,2.583,1.626,4.805,1.626h17.52
		c0.773,0,1.459-0.076,2.054-0.232c0.593-0.156,1.227-0.438,1.899-0.852c0.672-0.468,1.175-1.137,1.513-2.018
		c0.334-0.878,0.504-1.756,0.504-2.635v-50.385c0.154-2.326,0.787-4.483,1.898-6.475c1.11-1.988,2.479-3.72,4.108-5.192
		c1.627-1.472,3.41-2.622,5.348-3.449c1.938-0.827,3.838-1.242,5.698-1.242c2.169,0,4.302,0.441,6.396,1.319
		c2.093,0.879,3.966,2.082,5.62,3.605c1.652,1.524,2.983,3.282,3.991,5.272c1.009,1.989,1.513,4.095,1.513,6.315v50.466
		c0,2.169,0.413,3.63,1.239,4.378c0.826,0.751,2.352,1.124,4.573,1.124h17.907c1.86,0,3.216-0.503,4.069-1.512
		c0.852-1.009,1.278-2.492,1.278-4.458V156.24c0-5.941-0.931-11.531-2.789-16.769C876.382,134.234,873.758,129.657,870.374,125.742"
		/>
	<path clip-path="url(#SVGID_2_)" fill="#E6E6E6" d="M966.687,220.981c-4.326,0-7.583-1.048-9.954-3.204
		c-2.557-2.311-3.859-5.779-3.859-10.298V156.24c0-1.096-0.192-2.06-0.587-2.946c-0.444-0.993-1.016-1.828-1.749-2.549
		c-0.711-0.697-1.541-1.238-2.533-1.649c-0.963-0.397-1.98-0.593-3.099-0.593c-0.792,0-1.566,0.164-2.366,0.5
		c-0.874,0.368-1.644,0.878-2.354,1.563c-0.771,0.741-1.41,1.638-1.963,2.742c-0.452,0.902-0.722,1.909-0.821,3.077v50.862
		c0,1.844-0.346,3.688-1.027,5.478c-0.916,2.39-2.444,4.369-4.429,5.746l-0.177,0.122l-0.184,0.114
		c-1.337,0.824-2.706,1.423-4.068,1.781c-1.252,0.327-2.626,0.493-4.085,0.493h-17.519c-5.69,0-8.98-2.315-10.738-4.259
		c-1.615-1.787-3.54-4.921-3.54-9.709V91.17c0-3.743,1.226-7.075,3.545-9.634c1.748-1.937,5.039-4.257,10.733-4.257h17.519
		c2.587,0,5.25,0.77,7.916,2.29l0.3,0.172l0.285,0.196c1.985,1.373,3.519,3.353,4.432,5.725c0.692,1.823,1.037,3.613,1.037,5.352
		v17.093c1.487-0.647,3.059-1.211,4.705-1.685c3.104-0.9,6.604-1.358,10.394-1.358c7.098,0,13.589,1.419,19.296,4.218
		c5.634,2.761,10.49,6.587,14.435,11.37c3.86,4.681,6.825,10.19,8.81,16.375c1.925,6.01,2.902,12.473,2.902,19.213v50.773
		c0,3.895-1.066,7.13-3.167,9.618c-1.685,1.989-4.811,4.35-10.184,4.35H966.687z"/>
	<path clip-path="url(#SVGID_2_)" fill="#242422" d="M980.059,125.742c-3.231-3.918-7.158-7.01-11.784-9.278
		c-4.625-2.268-9.883-3.4-15.774-3.4c-3.049,0-5.774,0.348-8.177,1.044c-2.405,0.694-4.548,1.596-6.435,2.704
		c-1.887,1.109-3.527,2.371-4.923,3.788c-1.395,1.417-2.584,2.847-3.564,4.289V91.014c0-0.775-0.17-1.601-0.504-2.48
		c-0.338-0.878-0.84-1.55-1.513-2.015c-1.447-0.825-2.765-1.24-3.953-1.24h-17.52c-2.222,0-3.824,0.542-4.804,1.628
		c-0.984,1.085-1.474,2.506-1.474,4.263v28.758v0.388v23.056v0.544v63.097c0,1.812,0.489,3.256,1.474,4.344
		c0.979,1.084,2.582,1.626,4.804,1.626h17.52c0.774,0,1.46-0.076,2.055-0.232c0.593-0.156,1.226-0.438,1.898-0.852
		c0.673-0.468,1.175-1.137,1.513-2.018c0.334-0.878,0.504-1.756,0.504-2.635v-51.161c0.154-2.325,0.709-4.445,1.666-6.355
		c0.956-1.912,2.143-3.554,3.565-4.924c1.421-1.369,3.022-2.428,4.807-3.178c1.783-0.749,3.604-1.125,5.466-1.125
		c2.169,0,4.223,0.403,6.162,1.202c1.937,0.803,3.63,1.914,5.077,3.334c1.445,1.422,2.597,3.089,3.449,4.999
		c0.853,1.914,1.278,3.981,1.278,6.202v51.24c0,2.169,0.414,3.63,1.241,4.378c0.826,0.751,2.35,1.124,4.573,1.124h17.905
		c1.862,0,3.218-0.503,4.07-1.512s1.28-2.492,1.28-4.458V156.24c0-5.941-0.841-11.531-2.521-16.769
		C985.742,134.234,983.287,129.657,980.059,125.742"/>
	<path clip-path="url(#SVGID_2_)" fill="#E6E6E6" d="M1056.528,222.766c-5.445,0-10.757-0.695-15.786-2.065
		c-5.015-1.363-9.771-3.343-14.132-5.883c-4.356-2.537-8.362-5.621-11.903-9.166c-3.542-3.54-6.626-7.546-9.161-11.9
		c-2.528-4.339-4.52-9.081-5.91-14.092c-1.403-5.044-2.113-10.367-2.113-15.822c0-5.451,0.71-10.784,2.11-15.851
		c1.393-5.044,3.388-9.797,5.927-14.126c2.529-4.314,5.608-8.299,9.15-11.842c3.553-3.554,7.568-6.632,11.938-9.145
		c4.339-2.498,9.082-4.457,14.095-5.824c5.045-1.37,10.354-2.065,15.786-2.065c8.067,0,15.778,1.53,22.917,4.547
		c7.104,3.001,13.385,7.203,18.668,12.487c5.27,5.269,9.489,11.531,12.541,18.612c3.085,7.161,4.648,14.968,4.648,23.207
		c0,5.454-0.712,10.778-2.116,15.825c-1.391,5.006-3.38,9.748-5.911,14.092c-2.533,4.352-5.616,8.355-9.161,11.9
		c-3.542,3.543-7.547,6.627-11.901,9.163c-4.355,2.537-9.076,4.514-14.035,5.878
		C1067.197,222.068,1061.932,222.766,1056.528,222.766 M1056.296,147.109c-2.279,0-4.209,0.392-5.9,1.198
		c-1.751,0.835-3.194,1.934-4.407,3.356c-1.309,1.537-2.304,3.298-3.041,5.382c-0.762,2.158-1.132,4.379-1.132,6.792
		c0,2.476,0.378,4.792,1.125,6.887c0.715,2.008,1.672,3.666,2.927,5.071c1.206,1.352,2.652,2.4,4.417,3.209
		c1.723,0.789,3.688,1.172,6.012,1.172c2.198,0,4.069-0.376,5.724-1.147c1.701-0.793,3.09-1.826,4.25-3.157
		c1.203-1.386,2.121-3.034,2.797-5.03c0.723-2.128,1.088-4.482,1.088-7.004c0-2.425-0.367-4.748-1.093-6.904
		c-0.699-2.076-1.653-3.827-2.919-5.356c-1.159-1.394-2.547-2.475-4.237-3.297C1060.284,147.492,1058.448,147.109,1056.296,147.109"
		/>
	<path clip-path="url(#SVGID_2_)" fill="#242422" d="M1092.457,127.675c-4.574-4.574-9.949-8.165-16.125-10.775
		c-6.174-2.609-12.776-3.915-19.803-3.915c-4.756,0-9.316,0.596-13.684,1.783c-4.366,1.19-8.437,2.868-12.209,5.039
		c-3.771,2.171-7.196,4.793-10.27,7.868c-3.076,3.075-5.711,6.486-7.908,10.234c-2.196,3.745-3.901,7.814-5.115,12.209
		c-1.215,4.392-1.821,8.965-1.821,13.719s0.606,9.314,1.821,13.681c1.214,4.369,2.919,8.439,5.115,12.208
		c2.197,3.773,4.832,7.198,7.908,10.271c3.073,3.077,6.498,5.711,10.27,7.908c3.772,2.196,7.843,3.89,12.209,5.077
		c4.367,1.189,8.928,1.782,13.684,1.782c4.7,0,9.211-0.593,13.526-1.782c4.314-1.188,8.358-2.881,12.131-5.077
		c3.771-2.197,7.195-4.831,10.271-7.908c3.074-3.073,5.709-6.498,7.907-10.271c2.196-3.769,3.901-7.839,5.115-12.208
		c1.215-4.366,1.823-8.927,1.823-13.681c0-7.182-1.334-13.862-3.993-20.039C1100.647,137.624,1097.031,132.249,1092.457,127.675
		 M1076.644,173.41c-1.009,2.972-2.455,5.543-4.341,7.714c-1.889,2.169-4.186,3.888-6.898,5.154
		c-2.714,1.267-5.751,1.897-9.109,1.897c-3.463,0-6.576-0.631-9.341-1.897c-2.764-1.267-5.116-2.985-7.053-5.154
		c-1.939-2.171-3.438-4.742-4.496-7.714c-1.06-2.972-1.59-6.164-1.59-9.573c0-3.306,0.53-6.459,1.59-9.456
		c1.058-2.998,2.557-5.633,4.496-7.908c1.937-2.272,4.289-4.069,7.053-5.388c2.765-1.318,5.878-1.976,9.341-1.976
		c3.358,0,6.396,0.658,9.109,1.976c2.713,1.319,5.01,3.116,6.898,5.388c1.886,2.275,3.332,4.91,4.341,7.908
		c1.009,2.997,1.512,6.15,1.512,9.456C1078.155,167.246,1077.652,170.438,1076.644,173.41"/>
	<path clip-path="url(#SVGID_2_)" fill="#E6E6E6" d="M1161.719,222.532c-7.059,0-13.607-1.406-19.469-4.178
		c-5.803-2.745-10.823-6.552-14.926-11.313c-4.016-4.659-7.162-10.146-9.347-16.307c-2.156-6.079-3.25-12.625-3.25-19.456v-50.774
		c0-3.907,1.07-7.148,3.179-9.634c1.668-1.972,4.795-4.336,10.169-4.336h17.907c4.319,0,7.573,1.047,9.947,3.2
		c2.568,2.338,3.865,5.804,3.865,10.311v50.517c0,0.975,0.207,1.839,0.652,2.718c0.577,1.141,1.322,2.126,2.274,3.003
		c0.976,0.902,2.052,1.591,3.293,2.112c1.117,0.47,2.192,0.696,3.3,0.696c0.73,0,1.585-0.214,2.538-0.636
		c1.258-0.555,2.388-1.282,3.462-2.225c0.979-0.859,1.762-1.845,2.4-3.016c0.445-0.818,0.652-1.611,0.652-2.499v-50.441
		c0-1.853,0.348-3.7,1.031-5.491c0.91-2.378,2.44-4.36,4.428-5.738l0.173-0.12l0.181-0.111c1.351-0.834,2.727-1.437,4.095-1.791
		c1.248-0.325,2.616-0.49,4.063-0.49h17.519c5.687,0,8.976,2.317,10.736,4.261c1.614,1.784,3.542,4.918,3.542,9.709v86.748
		c0,2.295-0.535,4.468-1.592,6.46c-0.842,1.586-1.944,2.932-3.293,4.02l0.034,0.051c-1.698,1.436-3.607,2.381-5.676,2.809
		c-1.271,0.265-2.536,0.398-3.752,0.398h-11.705c-2.182,0-4.195-0.453-5.983-1.347c-1.685-0.844-3.136-2.001-4.314-3.44
		c-0.566-0.691-1.073-1.434-1.52-2.223c-0.229,0.187-0.462,0.371-0.695,0.555c-2.897,2.262-6.325,4.163-10.197,5.65
		C1171.372,221.744,1166.759,222.532,1161.719,222.532"/>
	<path clip-path="url(#SVGID_2_)" fill="#242422" d="M1209.856,114.536h-17.52c-0.774,0-1.46,0.079-2.054,0.233
		c-0.595,0.154-1.229,0.439-1.9,0.854c-0.673,0.466-1.175,1.139-1.511,2.017c-0.336,0.879-0.504,1.759-0.504,2.637v50.44
		c0,2.226-0.542,4.335-1.628,6.326c-1.085,1.991-2.468,3.726-4.147,5.198c-1.68,1.477-3.515,2.652-5.503,3.53
		c-1.99,0.882-3.916,1.321-5.775,1.321c-2.17,0-4.303-0.439-6.396-1.321c-2.091-0.878-3.966-2.08-5.619-3.606
		c-1.654-1.525-2.983-3.284-3.992-5.276c-1.008-1.993-1.512-4.102-1.512-6.326v-50.516c0-2.174-0.415-3.634-1.24-4.385
		c-0.827-0.751-2.352-1.126-4.572-1.126h-17.906c-1.861,0-3.218,0.505-4.07,1.512c-0.854,1.007-1.278,2.494-1.278,4.458v50.773
		c0,5.943,0.93,11.538,2.79,16.782c1.859,5.245,4.482,9.832,7.867,13.76c3.385,3.927,7.481,7.028,12.286,9.302
		c4.808,2.274,10.155,3.41,16.047,3.41c4.081,0,7.699-0.605,10.854-1.813c3.149-1.211,5.862-2.707,8.139-4.485
		c2.272-1.777,4.146-3.685,5.62-5.719c1.471-2.036,2.596-3.854,3.372-5.451l2.402,9.896c0.206,0.771,0.465,1.52,0.774,2.24
		c0.312,0.723,0.698,1.366,1.163,1.935c0.464,0.566,1.033,1.018,1.705,1.354c0.671,0.336,1.473,0.502,2.404,0.502h11.705
		c0.67,0,1.382-0.077,2.131-0.232c0.748-0.155,1.46-0.516,2.133-1.084l-0.465,0.229c0.774-0.463,1.381-1.109,1.819-1.938
		c0.438-0.825,0.659-1.729,0.659-2.713v-86.748c0-1.81-0.491-3.257-1.473-4.341C1213.678,115.079,1212.077,114.536,1209.856,114.536
		"/>
	<path clip-path="url(#SVGID_2_)" fill="#E6E6E6" d="M1279.93,222.766c-8.127,0-15.756-1.563-22.674-4.646
		c-6.875-3.061-12.887-7.324-17.868-12.668c-4.94-5.299-8.846-11.599-11.606-18.724c-2.75-7.101-4.146-14.802-4.146-22.891
		c0-8.143,1.396-15.861,4.149-22.938c2.761-7.096,6.665-13.38,11.604-18.678c4.989-5.351,11.01-9.604,17.896-12.64
		c6.916-3.05,14.535-4.596,22.646-4.596c3.731,0,7.244,0.571,10.443,1.695c2.015,0.708,3.936,1.567,5.741,2.564V91.126
		c0-3.609,1.22-6.892,3.525-9.493c1.778-2.005,5.048-4.399,10.521-4.399h17.44c1.624,0,3.287,0.315,4.942,0.936
		c1.603,0.609,3.06,1.46,4.361,2.543c1.419,1.185,2.575,2.606,3.446,4.233c1.017,1.902,1.53,3.979,1.53,6.18v115.888
		c0,8.354-5.739,13.969-14.28,13.969h-15.193c-2.225,0-4.102-0.366-5.738-1.117c-1.706-0.771-3.194-1.936-4.382-3.444
		c-0.428-0.541-0.827-1.137-1.195-1.781c-0.836,0.652-1.696,1.285-2.579,1.896c-2.521,1.749-5.272,3.206-8.173,4.331
		C1287.104,222.126,1283.598,222.766,1279.93,222.766 M1281.945,147.109c-2.176,0-4.055,0.392-5.742,1.197
		c-1.772,0.844-3.237,1.955-4.483,3.396c-1.318,1.529-2.314,3.276-3.046,5.343c-0.762,2.158-1.132,4.378-1.132,6.792
		c0,2.476,0.379,4.792,1.125,6.887c0.709,1.99,1.668,3.636,2.931,5.031c1.241,1.371,2.708,2.434,4.49,3.248
		c1.723,0.79,3.637,1.173,5.857,1.173c2.285,0,4.354-0.39,6.322-1.19c1.989-0.811,3.656-1.88,5.102-3.273
		c1.465-1.413,2.619-3.052,3.527-5.011c0.861-1.858,1.343-3.819,1.467-5.988v-0.876c0-2.267-0.41-4.359-1.254-6.399
		c-0.858-2.076-2.011-3.847-3.519-5.407c-1.487-1.539-3.203-2.729-5.241-3.633C1286.396,147.531,1284.3,147.109,1281.945,147.109"/>
	<path clip-path="url(#SVGID_2_)" fill="#242422" d="M1333.3,88.723c-0.387-0.722-0.892-1.343-1.512-1.861
		c-0.619-0.515-1.306-0.918-2.054-1.202c-0.751-0.281-1.461-0.426-2.133-0.426h-17.44c-2.017,0-3.527,0.57-4.535,1.707
		c-1.007,1.135-1.512,2.531-1.512,4.185v35.424c-1.447-1.55-2.983-3.138-4.611-4.766c-1.629-1.629-3.411-3.089-5.349-4.38
		c-1.938-1.292-4.083-2.351-6.436-3.178c-2.351-0.826-4.949-1.242-7.789-1.242c-7.029,0-13.502,1.307-19.419,3.916
		c-5.919,2.61-11.006,6.201-15.27,10.775c-4.265,4.574-7.599,9.949-10,16.122c-2.402,6.178-3.605,12.857-3.605,20.04
		c0,7.131,1.203,13.798,3.605,20c2.401,6.201,5.735,11.588,10,16.16c4.264,4.575,9.351,8.179,15.27,10.815
		c5.917,2.636,12.39,3.953,19.419,3.953c2.687,0,5.193-0.453,7.519-1.357c2.325-0.902,4.497-2.052,6.512-3.448
		c2.015-1.396,3.862-2.895,5.543-4.497c1.677-1.602,3.215-3.101,4.611-4.497l2.249,6.048c0.465,0.982,0.853,1.849,1.163,2.598
		c0.31,0.748,0.657,1.369,1.046,1.858c0.388,0.493,0.863,0.867,1.434,1.124c0.567,0.261,1.368,0.389,2.402,0.389h15.193
		c4.187,0,6.28-1.989,6.28-5.969V91.126C1333.882,90.248,1333.688,89.448,1333.3,88.723 M1306.363,164.921
		c-0.156,3.256-0.893,6.308-2.209,9.147c-1.319,2.844-3.063,5.311-5.232,7.404c-2.171,2.093-4.718,3.733-7.637,4.922
		s-6.033,1.781-9.34,1.781c-3.359,0-6.424-0.631-9.187-1.898c-2.766-1.266-5.129-2.984-7.092-5.153
		c-1.965-2.171-3.478-4.742-4.535-7.714c-1.06-2.972-1.59-6.164-1.59-9.573c0-3.307,0.53-6.459,1.59-9.457
		c1.058-2.997,2.57-5.632,4.535-7.907c1.963-2.273,4.326-4.07,7.092-5.388c2.763-1.318,5.827-1.976,9.187-1.976
		c3.461,0,6.679,0.658,9.649,1.976c2.973,1.318,5.556,3.115,7.751,5.388c2.198,2.275,3.916,4.91,5.157,7.907
		c1.239,2.998,1.86,6.15,1.86,9.457V164.921z"/>
	<path clip-path="url(#SVGID_2_)" fill="#E6E6E6" d="M67.187,266.646l-2.438-3.812c-16.783-26.236-26.802-70.656-26.802-118.824
		c0-21.681,3.303-43.434,10.098-66.501l0.033-0.104C59.58,40.179,83.285,0,101.524,0c18.245,0,41.953,40.179,53.457,77.405
		l0.032,0.107c6.789,23.079,10.09,44.831,10.09,66.498c0,48.183-10.02,92.603-26.803,118.825l-2.439,3.811H67.187z"/>
	<path clip-path="url(#SVGID_2_)" fill="#82BC00" d="M156.837,144.01c0,48.022-10.159,90.4-25.5,114.37H71.71
		c-15.332-23.97-25.499-66.348-25.499-114.37c0-23.193,3.918-44.328,9.762-64.165C69,37.691,91.581,8.265,101.524,8.265
		c9.952,0,32.534,29.426,45.559,71.58C152.919,99.682,156.837,120.817,156.837,144.01"/>
	<path clip-path="url(#SVGID_2_)" fill="#E6E6E6" d="M11.607,292.84c-5.305-0.001-9.538-3.99-11.326-10.674L0,281.115v-1.086
		c0-112.025,54.796-119.682,57.129-119.954l8.068-0.938l9.969,74.436h-9.447c-24.949,0-36.26,31.912-41.091,45.539l-0.484,1.362
		c-1.205,3.381-4.409,12.366-12.535,12.366H11.607z"/>
	<path clip-path="url(#SVGID_2_)" fill="#242422" d="M58.083,168.286c0,0-49.818,5.79-49.818,111.744c0,0,3.113,11.638,8.093-2.334
		c4.984-13.97,17.602-52.39,49.361-52.39L58.083,168.286z"/>
	<path clip-path="url(#SVGID_2_)" fill="#E6E6E6" d="M192.271,292.84c-8.128,0-11.331-8.985-12.537-12.368l-0.166-0.47
		c-4.528-12.697-16.557-46.43-42.141-46.43h-9.567l10.92-74.422l7.969,0.925c2.332,0.272,57.131,7.929,57.131,119.954v1.087
		l-0.281,1.05C201.811,288.851,197.576,292.84,192.271,292.84"/>
	<path clip-path="url(#SVGID_2_)" fill="#242422" d="M145.795,168.286c0,0,49.82,5.79,49.82,111.744c0,0-3.114,11.638-8.094-2.334
		c-4.985-13.97-18.332-52.39-50.093-52.39L145.795,168.286z"/>
	<path clip-path="url(#SVGID_2_)" fill="#E6E6E6" d="M101.524,60.71c-16.854,0-30.516,13.663-30.516,30.516
		c0,16.854,13.662,30.516,30.516,30.516s30.518-13.662,30.518-30.516C132.042,74.373,118.378,60.71,101.524,60.71 M101.524,112.138
		c-11.547,0-20.911-9.364-20.911-20.912c0-11.546,9.364-20.903,20.911-20.903c11.547,0,20.912,9.357,20.912,20.903
		C122.436,102.774,113.071,112.138,101.524,112.138"/>
	<path clip-path="url(#SVGID_2_)" fill="#242422" d="M122.437,91.227c0,11.547-9.365,20.912-20.912,20.912
		s-20.911-9.365-20.911-20.912c0-11.547,9.364-20.903,20.911-20.903S122.437,79.679,122.437,91.227"/>
	<path clip-path="url(#SVGID_2_)" fill="#E6E6E6" d="M100.133,300c-2.302,0-4.645-0.914-6.394-2.471
		c-2.477-2.121-3.996-5.528-3.996-9.035l0.002-4.169l0.118-5.048l-4.319-105.099v-0.17c0-10.876,4.167-16.219,7.959-18.827
		c1.029-0.838,1.969-1.271,2.405-1.466c1.171-0.562,2.467-0.855,3.786-0.855c0.165,0,0.331,0.005,0.497,0.014h2.583
		c0.167-0.009,0.33-0.014,0.492-0.014c1.316,0,2.606,0.294,3.775,0.855c4.786,2.124,10.466,7.346,10.466,20.136v0.177
		l-4.488,105.194l-0.132,5.551v3.877c0,7.451-4.882,11.35-9.704,11.35H100.133z"/>
	<path clip-path="url(#SVGID_2_)" fill="#242422" d="M109.241,173.852l-4.484,105.096l-0.136,5.729v3.974
		c0,1.638-0.563,3.084-1.439,3.084h-3.049c-0.273,0-0.719-0.19-0.952-0.429c-0.586-0.448-1.172-1.563-1.172-2.812v-3.976
		l0.124-5.315l-4.324-105.194c0-8.356,2.996-11.191,4.724-12.241c0.313-0.339,0.643-0.455,0.923-0.587
		c0.158-0.091,0.338-0.041,0.503-0.041h3.05c0.165,0,0.331-0.05,0.479,0.041C104.464,161.636,109.241,163.205,109.241,173.852"/>
</g>
</svg>
